HIERARCHY
ROOT root
{
	OFFSET 0.000000 0.000000 0.000000
	CHANNELS 6 Xposition Yposition Zposition Zrotation Yrotation Xrotation
	JOINT lhip
	{
		OFFSET 0.058581 -0.082280 -0.017664
		CHANNELS 3 Zrotation Yrotation Xrotation
		JOINT lknee
		{
			OFFSET 0.043451 -0.386469 0.008037
			CHANNELS 3 Zrotation Yrotation Xrotation
			JOINT lankle
			{
				OFFSET -0.014790 -0.426874 -0.037428
				CHANNELS 3 Zrotation Yrotation Xrotation
				JOINT ltoe
				{
					OFFSET 0.041054 -0.060286 0.122042
					CHANNELS 3 Zrotation Yrotation Xrotation
					End Site
					{
						OFFSET 0.000000 0.000000 0.000000
					}
				}
			}
		}
	}
	JOINT rhip
	{
		OFFSET -0.060310 -0.090513 -0.013543
		CHANNELS 3 Zrotation Yrotation Xrotation
		JOINT rknee
		{
			OFFSET -0.043257 -0.383688 -0.004843
			CHANNELS 3 Zrotation Yrotation Xrotation
			JOINT rankle
			{
				OFFSET 0.019056 -0.420046 -0.034562
				CHANNELS 3 Zrotation Yrotation Xrotation
				JOINT rtoe
				{
					OFFSET -0.034840 -0.062106 0.130323
					CHANNELS 3 Zrotation Yrotation Xrotation
					End Site
					{
						OFFSET 0.000000 0.000000 0.000000
					}
				}
			}
		}
	}
	JOINT lowerback
	{
		OFFSET 0.004439 0.124404 -0.038385
		CHANNELS 3 Zrotation Yrotation Xrotation
		JOINT upperback
		{
			OFFSET 0.004488 0.137956 0.026820
			CHANNELS 3 Zrotation Yrotation Xrotation
			JOINT chest
			{
				OFFSET -0.002265 0.056032 0.002855
				CHANNELS 3 Zrotation Yrotation Xrotation
				JOINT lowerneck
				{
					OFFSET -0.013390 0.211636 -0.033468
					CHANNELS 3 Zrotation Yrotation Xrotation
					JOINT upperneck
					{
						OFFSET 0.010113 0.088937 0.050410
						CHANNELS 3 Zrotation Yrotation Xrotation
						End Site
						{
							OFFSET 0.000000 0.000000 0.000000
						}
					}
				}
				JOINT lclavicle
				{
					OFFSET 0.071702 0.114000 -0.018898
					CHANNELS 3 Zrotation Yrotation Xrotation
					JOINT lshoulder
					{
						OFFSET 0.122921 0.045205 -0.019046
						CHANNELS 3 Zrotation Yrotation Xrotation
						JOINT lelbow
						{
							OFFSET 0.255332 -0.015649 -0.022946
							CHANNELS 3 Zrotation Yrotation Xrotation
							JOINT lwrist
							{
								OFFSET 0.265709 0.012698 -0.007375
								CHANNELS 3 Zrotation Yrotation Xrotation
								End Site
								{
									OFFSET 0.000000 0.000000 0.000000
								}
							}
						}
					}
				}
				JOINT rclavicle
				{
					OFFSET -0.082954 0.112472 -0.023707
					CHANNELS 3 Zrotation Yrotation Xrotation
					JOINT rshoulder
					{
						OFFSET -0.113228 0.046853 -0.008472
						CHANNELS 3 Zrotation Yrotation Xrotation
						JOINT relbow
						{
							OFFSET -0.260127 -0.014369 -0.031269
							CHANNELS 3 Zrotation Yrotation Xrotation
							JOINT rwrist
							{
								OFFSET -0.269108 0.006794 -0.006027
								CHANNELS 3 Zrotation Yrotation Xrotation
								End Site
								{
									OFFSET 0.000000 0.000000 0.000000
								}
							}
						}
					}
				}
			}
		}
	}
}
MOTION
Frames: 6
Frame Time: 0.033333
2.359176 0.682703 0.986386 -89.207656 0.345644 83.057436 -0.318280 -0.595168 2.501177 -0.218436 -7.668452 4.907940 2.985749 11.074111 -11.618268 0.000000 -0.000000 0.000000 -0.862212 -0.636272 -0.687251 -2.193705 1.341896 11.524032 1.845832 -8.879851 -13.458683 0.000000 -0.000000 0.000000 -2.094344 1.310880 7.498357 0.601285 -2.884052 8.897384 -0.987076 0.060171 -0.899183 2.129085 -1.760435 7.661634 3.984392 -2.575007 12.230864 -26.809655 -6.393832 1.226136 -53.267021 -11.610064 15.086075 2.977355 -22.534442 5.616278 -6.082246 -5.049028 5.039167 24.961721 9.653617 2.755928 56.645732 6.038851 20.010338 -3.383384 23.562631 7.843001 2.994993 4.081172 5.795168 
2.359807 0.682115 0.985840 -89.294570 0.251785 82.724220 -0.455612 -0.615286 2.892042 -0.230940 -7.653567 4.786457 2.836307 11.098964 -11.687709 0.000000 -0.000000 0.000000 -1.006175 -0.589702 -0.365523 -2.237426 1.391983 11.538950 1.948362 -8.633728 -13.518345 0.000000 -0.000000 0.000000 -1.938719 1.213328 8.153166 0.277839 -2.727727 8.326196 -1.060959 0.194861 -0.587476 2.030281 -1.654462 7.681476 3.627211 -2.562675 13.524248 -26.320764 -6.192570 1.255373 -53.777378 -11.909816 14.917066 3.231493 -22.615359 6.108136 -6.451578 -5.372554 4.699797 24.564744 9.512195 2.691216 57.207277 6.274586 20.276926 -3.689974 23.740035 8.485688 3.897907 4.258311 5.772334 
2.360126 0.681427 0.985805 -89.247194 0.203540 82.538047 -0.526550 -0.575946 3.155906 -0.238117 -7.829424 4.669432 2.586185 10.796074 -11.665661 0.000000 -0.000000 0.000000 -1.239623 -0.809740 -0.152883 -2.223223 1.206185 11.536766 2.074839 -8.487536 -13.525585 0.000000 -0.000000 0.000000 -1.830596 1.075911 8.356462 0.132836 -2.633181 8.126358 -1.151851 0.287041 -0.346177 2.117068 -1.738698 7.817610 3.379555 -2.597341 14.297790 -26.215951 -6.198165 1.438264 -53.820305 -12.110875 14.713292 3.267553 -22.783571 6.374629 -6.205446 -5.512809 4.310525 24.398146 9.520434 2.829666 57.386510 6.519207 20.491706 -3.513737 23.800655 9.104172 3.361164 3.917516 6.033921 
2.362426 0.681919 0.984993 -89.945387 0.141956 82.429798 -0.498119 -0.365576 3.216135 -0.342062 -7.450985 4.544039 2.489972 10.989780 -11.317466 0.000000 -0.000000 0.000000 -1.193778 -0.111484 -0.526343 -2.324980 1.224567 12.001780 2.103797 -8.490377 -13.254243 0.000000 -0.000000 0.000000 -1.593120 1.295882 9.480666 -0.092160 -2.155812 6.841641 -1.262394 0.302455 0.163114 1.984588 -1.644351 7.912294 3.337835 -2.243719 14.724036 -26.387674 -5.974169 1.350402 -53.846734 -12.103871 14.871078 3.406345 -23.052152 6.794226 -5.775814 -5.086682 4.217875 24.218597 9.352327 2.790272 57.740916 6.839775 20.800747 -3.367939 23.921453 9.916428 2.947473 3.235401 6.145696 
2.362890 0.682244 0.985179 -89.940582 0.188359 82.393372 -0.438023 -0.371778 3.223580 -0.378232 -7.500422 4.574757 2.710400 11.079547 -11.416707 0.000000 -0.000000 0.000000 -1.089317 -0.023257 -0.461737 -2.443118 1.271083 11.947508 2.153274 -8.476022 -13.196598 0.000000 -0.000000 0.000000 -1.544218 1.298339 9.497639 -0.104112 -2.168989 6.966761 -1.298443 0.363412 0.105025 1.864283 -1.632556 8.226794 3.415261 -2.040465 14.861031 -26.426784 -6.003905 1.459204 -53.790099 -12.103218 14.816127 3.240052 -23.084754 6.656616 -6.010931 -4.802336 4.080125 24.152118 9.475533 2.853641 57.803211 6.852450 20.862106 -3.330420 23.858504 9.992074 3.128884 3.178413 6.080702 
2.363471 0.682083 0.985033 -90.026767 0.127891 82.475436 -0.538985 -0.338683 3.077747 -0.440140 -7.443772 4.726360 2.323572 11.218036 -11.240638 0.000000 -0.000000 0.000000 -1.135392 0.173502 -0.749045 -2.506653 1.262163 12.216228 2.207225 -8.685494 -13.149977 0.000000 -0.000000 0.000000 -1.654777 1.384699 9.557737 -0.116674 -2.043474 7.090694 -1.218178 0.308988 -0.003359 1.792784 -1.574067 8.335472 3.368511 -1.879531 14.629013 -26.329909 -6.019350 1.475434 -54.081664 -12.155097 14.800760 3.489604 -23.002539 6.227586 -5.935468 -5.037024 3.986982 23.961810 9.611298 2.876123 57.931741 6.772631 20.859263 -3.382272 23.927925 9.910163 2.921968 3.509418 6.050849 
